# xmcd
#
# Track frame offsets:
# 150
# 6753
# 27197
# 44344
# 48409
# 65206
# 84410
# 107415
# 126073
# 141377
# 160398
# 168362
# 178960
#
# Disc length: 2455 seconds
#
# Revision: 0
# Processed by: cddbd v1.5.2PL0 Copyright (c) Steve Scherf et al.
# Submitted via: Audion 3.0.2 (http://www.panic.com/audion/)
#
DISCID=b009950d
DTITLE=Dekoy - Haunted
DYEAR=1900
DGENRE=
TTITLE0=Onset
TTITLE1=Red
TTITLE2=Looking Down
TTITLE3=Phone Call
TTITLE4=Clairaudient
TTITLE5=Dance With Me
TTITLE6=Haunted
TTITLE7=Spider's Web
TTITLE8=Reel
TTITLE9=No Return
TTITLE10=Morgue
TTITLE11=Outset
TTITLE12=Unknown
EXTD=
EXTT0=
EXTT1=
EXTT2=
EXTT3=
EXTT4=
EXTT5=
EXTT6=
EXTT7=
EXTT8=
EXTT9=
EXTT10=
EXTT11=
EXTT12=
PLAYORDER=
